<svg width="12" height="14" viewBox="0 0 12 14" fill="none" xmlns="http://www.w3.org/2000/svg">
<path d="M8.97501 12.4167V9.16669" stroke="#333333" stroke-width="1.5" stroke-linecap="round" stroke-linejoin="round"/>
<path d="M8.97501 3.20831V1.58331" stroke="#333333" stroke-width="1.5" stroke-linecap="round" stroke-linejoin="round"/>
<path d="M11.1417 5.37498C11.1417 5.80351 11.0146 6.22241 10.7765 6.57872C10.5384 6.93502 10.2001 7.21273 9.80415 7.37672C9.40824 7.54071 8.9726 7.58362 8.55231 7.50001C8.13201 7.41641 7.74595 7.21006 7.44294 6.90704C7.13992 6.60403 6.93357 6.21797 6.84997 5.79768C6.76637 5.37738 6.80927 4.94174 6.97326 4.54583C7.13725 4.14993 7.41496 3.81154 7.77127 3.57346C8.12757 3.33539 8.54648 3.20831 8.975 3.20831C9.54964 3.20831 10.1007 3.43659 10.5071 3.84291C10.9134 4.24924 11.1417 4.80034 11.1417 5.37498Z" stroke="#333333" stroke-width="1.5" stroke-linecap="round" stroke-linejoin="round"/>
<path d="M3.02499 12.4167V10.7917" stroke="#333333" stroke-width="1.5" stroke-linecap="round" stroke-linejoin="round"/>
<path d="M3.02499 4.83331V1.58331" stroke="#333333" stroke-width="1.5" stroke-linecap="round" stroke-linejoin="round"/>
<path d="M5.19166 8.62498C5.19166 9.05351 5.06458 9.47241 4.82651 9.82872C4.58843 10.185 4.25004 10.4627 3.85414 10.6267C3.45823 10.7907 3.02259 10.8336 2.60229 10.75C2.182 10.6664 1.79594 10.4601 1.49293 10.157C1.18991 9.85403 0.983556 9.46797 0.899955 9.04768C0.816354 8.62738 0.859261 8.19174 1.02325 7.79583C1.18724 7.39993 1.46495 7.06154 1.82125 6.82346C2.17756 6.58539 2.59646 6.45831 3.02499 6.45831C3.59963 6.45831 4.15073 6.68659 4.55705 7.09291C4.96338 7.49924 5.19166 8.05034 5.19166 8.62498Z" stroke="#333333" stroke-width="1.5" stroke-linecap="round" stroke-linejoin="round"/>
</svg>
