<svg width="8" height="14" viewBox="0 0 8 14" fill="none" xmlns="http://www.w3.org/2000/svg">
<path d="M0.0216426 8.10405C0.00745526 8.13194 -4.37469e-07 8.16285 -4.38841e-07 8.19422C6.55603e-05 8.23344 0.0118111 8.27166 0.0335875 8.30397L3.84008 13.9163C3.87558 13.9687 3.93424 14 3.99687 14C4.05949 14 4.11815 13.9687 4.15365 13.9163L7.96657 8.30397C8.00688 8.24417 8.01104 8.16654 7.97739 8.10265C7.94373 8.03876 7.87788 7.99914 7.80655 8.00001L0.190355 8.00001C0.119352 8.00001 0.0543531 8.0401 0.0215571 8.10406L0.0216426 8.10405Z" fill="#333333"/>
<path d="M7.97836 5.89594C7.99254 5.86806 8 5.83715 8 5.80578C7.99993 5.76656 7.98819 5.72834 7.96641 5.69603L4.15992 0.0837338C4.12442 0.0313076 4.06576 -2.56261e-07 4.00313 -2.53523e-07C3.94051 -2.50786e-07 3.88185 0.0313076 3.84635 0.0837338L0.0334348 5.69603C-0.00688366 5.75583 -0.0110411 5.83346 0.0226127 5.89735C0.0562669 5.96124 0.122123 6.00086 0.193451 5.99999L7.80965 5.99999C7.88065 5.99999 7.94565 5.9599 7.97844 5.89594L7.97836 5.89594Z" fill="#333333"/>
</svg>
