<svg width="20" height="20" viewBox="0 0 20 20" fill="none" xmlns="http://www.w3.org/2000/svg">
<path d="M18.3334 9.16666V14.1667C18.3334 17.5 17.5 18.3333 14.1667 18.3333H5.83335C2.50002 18.3333 1.66669 17.5 1.66669 14.1667V5.83333C1.66669 2.49999 2.50002 1.66666 5.83335 1.66666H7.08335C7.47881 1.61075 7.88192 1.67647 8.23914 1.85508C8.59637 2.03369 8.8908 2.31675 9.08335 2.66666L10.3334 4.33333C10.4626 4.56578 10.6591 4.75378 10.897 4.87273C11.1349 4.99169 11.4032 5.03604 11.6667 4.99999H14.1667C17.5 4.99999 18.3334 5.83332 18.3334 9.16666Z" stroke="#6E747B" stroke-width="1.5"/>
<path d="M6.66669 1.66669H14.1667C14.5063 1.61824 14.8525 1.6495 15.1779 1.758C15.5033 1.86651 15.799 2.04927 16.0415 2.29183C16.2841 2.53438 16.4669 2.83007 16.5754 3.15548C16.6839 3.4809 16.7151 3.8271 16.6667 4.16669V5.31669" stroke="#6E747B" stroke-width="1.5" stroke-linecap="round" stroke-linejoin="round"/>
</svg>
