<svg width="20" height="20" viewBox="0 0 20 20" fill="none" xmlns="http://www.w3.org/2000/svg">
<path d="M7.49999 18.3333H5.83332C2.49999 18.3333 1.66666 17.4999 1.66666 14.1666V5.83326C1.66666 2.49993 2.49999 1.6666 5.83332 1.6666H7.08332C7.47878 1.61069 7.88189 1.67641 8.23911 1.85502C8.59634 2.03363 8.89077 2.31669 9.08332 2.6666L10.3333 4.33326C10.4626 4.56572 10.659 4.75372 10.897 4.87267C11.1349 4.99162 11.4031 5.03598 11.6667 4.99993H14.1667C17.5 4.99993 18.3333 5.83326 18.3333 9.1666V10.8333" stroke="#46AB44" stroke-width="1.5" stroke-linecap="round" stroke-linejoin="round"/>
<path d="M11.4658 15.2668C11.0678 15.2893 10.6935 15.4633 10.4197 15.7531C10.1458 16.0429 9.99329 16.4264 9.99329 16.8251C9.99329 17.2238 10.1458 17.6073 10.4197 17.8971C10.6935 18.1869 11.0678 18.3609 11.4658 18.3834H16.0991C16.6596 18.3842 17.2003 18.1763 17.6158 17.8001C17.9207 17.5159 18.1397 17.1518 18.2478 16.7493C18.3559 16.3467 18.3487 15.9219 18.2271 15.5232C18.1055 15.1246 17.8743 14.7681 17.56 14.4943C17.2457 14.2206 16.8608 14.0407 16.4491 13.9751C16.4063 13.6065 16.2849 13.2513 16.093 12.9337C15.9011 12.616 15.6433 12.3433 15.3369 12.1339C15.0305 11.9244 14.6828 11.7832 14.3171 11.7198C13.9515 11.6564 13.5765 11.6722 13.2175 11.7661C12.8585 11.8601 12.5238 12.03 12.2362 12.2645C11.9485 12.4989 11.7145 12.7924 11.55 13.1251C11.3855 13.4577 11.2944 13.8218 11.2827 14.1927C11.2711 14.5637 11.3392 14.9328 11.4825 15.2751" stroke="#46AB44" stroke-width="1.5" stroke-linecap="round" stroke-linejoin="round"/>
</svg>
