<svg width="20" height="20" viewBox="0 0 20 20" fill="none" xmlns="http://www.w3.org/2000/svg">
<path d="M7.50002 18.3333H12.5C16.6667 18.3333 18.3334 16.6666 18.3334 12.5V7.49996C18.3334 3.33329 16.6667 1.66663 12.5 1.66663H7.50002C3.33335 1.66663 1.66669 3.33329 1.66669 7.49996V12.5C1.66669 16.6666 3.33335 18.3333 7.50002 18.3333Z" stroke="#6E747B" stroke-width="1.5" stroke-linecap="round" stroke-linejoin="round"/>
<path d="M7.49998 12.8167H11.6C12.2807 12.8167 12.9335 12.5463 13.4149 12.0649C13.8962 11.5836 14.1666 10.9307 14.1666 10.25C14.1666 9.56929 13.8962 8.91645 13.4149 8.43511C12.9335 7.95377 12.2807 7.68335 11.6 7.68335H5.95831" stroke="#6E747B" stroke-width="1.5" stroke-linecap="round" stroke-linejoin="round"/>
<path d="M7.14165 8.97498L5.83331 7.65831L7.14165 6.34998" stroke="#6E747B" stroke-width="1.5" stroke-linecap="round" stroke-linejoin="round"/>
</svg>
