<svg width="10" height="12" viewBox="0 0 10 12" fill="none" xmlns="http://www.w3.org/2000/svg">
<path d="M6.39166 2.25832C5.94057 2.12069 5.47161 2.05048 4.99999 2.04999C4.07316 2.05164 3.17344 2.36282 2.44363 2.93413C1.71382 3.50545 1.19575 4.30416 0.971649 5.20349C0.747548 6.10283 0.830258 7.05124 1.20665 7.89821C1.58304 8.74517 2.23155 9.44215 3.04924 9.87851C3.86692 10.3149 4.80693 10.4656 5.72006 10.3068C6.63318 10.148 7.4671 9.68874 8.08945 9.00194C8.7118 8.31513 9.08691 7.44013 9.15525 6.51582C9.22359 5.59151 8.98124 4.67085 8.46666 3.89999" stroke="#357ED3" stroke-width="1.5" stroke-linecap="round" stroke-linejoin="round"/>
<path d="M6.98331 2.37499L5.59998 0.783325" stroke="#357ED3" stroke-width="1.5" stroke-linecap="round" stroke-linejoin="round"/>
<path d="M6.98334 2.375L5.36667 3.55833" stroke="#357ED3" stroke-width="1.5" stroke-linecap="round" stroke-linejoin="round"/>
</svg>
