<svg width="20" height="20" viewBox="0 0 20 20" fill="none" xmlns="http://www.w3.org/2000/svg">
<path d="M12.5 10C12.5 10.4945 12.3534 10.9778 12.0787 11.3889C11.804 11.8 11.4135 12.1205 10.9567 12.3097C10.4999 12.4989 9.99723 12.5484 9.51228 12.452C9.02732 12.3555 8.58187 12.1174 8.23223 11.7678C7.8826 11.4181 7.6445 10.9727 7.54804 10.4877C7.45157 10.0028 7.50108 9.50011 7.6903 9.04329C7.87952 8.58648 8.19995 8.19603 8.61108 7.92133C9.0222 7.64662 9.50555 7.5 10 7.5C10.663 7.5 11.2989 7.76339 11.7678 8.23223C12.2366 8.70107 12.5 9.33696 12.5 10Z" stroke="#6E747B" stroke-width="1.5" stroke-linecap="round" stroke-linejoin="round"/>
<path d="M1.66669 10.7334V9.26668C1.66801 8.84716 1.83524 8.4452 2.13189 8.14856C2.42854 7.85191 2.8305 7.68467 3.25002 7.68335C4.75835 7.68335 5.37502 6.61668 4.61669 5.30835C4.40848 4.94464 4.35296 4.51321 4.46231 4.10863C4.57165 3.70405 4.83694 3.35933 5.20002 3.15002L6.64169 2.32502C6.96005 2.13979 7.33888 2.08841 7.69507 2.18215C8.05127 2.27589 8.35574 2.50708 8.54169 2.82502L8.63335 2.98335C9.38335 4.29168 10.6167 4.29168 11.375 2.98335L11.4667 2.82502C11.6526 2.50708 11.9571 2.27589 12.3133 2.18215C12.6695 2.08841 13.0483 2.13979 13.3667 2.32502L14.8084 3.15002C15.1714 3.35933 15.4367 3.70405 15.5461 4.10863C15.6554 4.51321 15.5999 4.94464 15.3917 5.30835C14.6334 6.61668 15.25 7.68335 16.7584 7.68335C17.1779 7.68467 17.5798 7.85191 17.8765 8.14856C18.1731 8.4452 18.3404 8.84716 18.3417 9.26668V10.7334C18.3404 11.1529 18.1731 11.5548 17.8765 11.8515C17.5798 12.1481 17.1779 12.3154 16.7584 12.3167C15.25 12.3167 14.6334 13.3834 15.3917 14.6917C15.5999 15.0554 15.6554 15.4868 15.5461 15.8914C15.4367 16.296 15.1714 16.6407 14.8084 16.85L13.3667 17.675C13.0483 17.8602 12.6695 17.9116 12.3133 17.8179C11.9571 17.7241 11.6526 17.493 11.4667 17.175L11.375 17.0167C10.625 15.7084 9.39169 15.7084 8.63335 17.0167L8.54169 17.175C8.35574 17.493 8.05127 17.7241 7.69507 17.8179C7.33888 17.9116 6.96005 17.8602 6.64169 17.675L5.20002 16.85C4.83694 16.6407 4.57165 16.296 4.46231 15.8914C4.35296 15.4868 4.40848 15.0554 4.61669 14.6917C5.37502 13.3834 4.75835 12.3167 3.25002 12.3167C2.8305 12.3154 2.42854 12.1481 2.13189 11.8515C1.83524 11.5548 1.66801 11.1529 1.66669 10.7334V10.7334Z" stroke="#6E747B" stroke-width="1.5" stroke-linecap="round" stroke-linejoin="round"/>
</svg>
