<svg width="20" height="20" viewBox="0 0 20 20" fill="none" xmlns="http://www.w3.org/2000/svg">
<path d="M10 17.0834H5.83335C3.33335 17.0834 1.66669 15.8334 1.66669 12.9167V7.08335C1.66669 4.16669 3.33335 2.91669 5.83335 2.91669H14.1667C16.6667 2.91669 18.3334 4.16669 18.3334 7.08335V9.58335" stroke="#6E747B" stroke-width="1.5" stroke-linecap="round" stroke-linejoin="round"/>
<path d="M14.1666 7.5L11.5583 9.58333C11.1054 9.91624 10.5579 10.0958 9.99581 10.0958C9.43369 10.0958 8.88626 9.91624 8.43331 9.58333L5.83331 7.5" stroke="#6E747B" stroke-width="1.5" stroke-linecap="round" stroke-linejoin="round"/>
<path d="M16.0083 12.3084L13.0591 15.2584C12.9325 15.3964 12.8461 15.5664 12.8091 15.75L12.6508 16.875C12.631 16.9623 12.6336 17.0531 12.6584 17.1391C12.6832 17.225 12.7294 17.3033 12.7926 17.3665C12.8559 17.4298 12.9341 17.476 13.0201 17.5008C13.1061 17.5256 13.1969 17.5282 13.2841 17.5084L14.4091 17.35C14.5934 17.3149 14.7639 17.2282 14.9008 17.1L17.8508 14.15C17.9979 14.0448 18.1178 13.9059 18.2005 13.745C18.2831 13.5842 18.3263 13.4059 18.3263 13.225C18.3263 13.0441 18.2831 12.8659 18.2005 12.705C18.1178 12.5441 17.9979 12.4053 17.8508 12.3C17.7451 12.1542 17.6063 12.0357 17.4457 11.9543C17.2851 11.8728 17.1075 11.8307 16.9274 11.8316C16.7474 11.8324 16.5701 11.876 16.4103 11.9589C16.2505 12.0419 16.1127 12.1616 16.0083 12.3084V12.3084Z" stroke="#6E747B" stroke-width="1.5" stroke-linecap="round" stroke-linejoin="round"/>
<path d="M15.5834 12.7333C15.7057 13.1752 15.9404 13.5779 16.2646 13.9021C16.5888 14.2263 16.9915 14.461 17.4334 14.5833" stroke="#6E747B" stroke-width="1.5" stroke-linecap="round" stroke-linejoin="round"/>
</svg>
