<svg width="20" height="20" viewBox="0 0 20 20" fill="none" xmlns="http://www.w3.org/2000/svg">
<path d="M14.1666 5.83335C14.1666 6.65744 13.9223 7.46303 13.4644 8.14823C13.0066 8.83343 12.3559 9.36749 11.5945 9.68285C10.8331 9.99822 9.99536 10.0807 9.18711 9.91996C8.37885 9.75919 7.63642 9.36235 7.0537 8.77963C6.47098 8.19691 6.07415 7.45448 5.91338 6.64623C5.7526 5.83798 5.83512 5.0002 6.15048 4.23884C6.46585 3.47748 6.9999 2.82674 7.68511 2.3689C8.37031 1.91106 9.17589 1.66669 9.99998 1.66669C11.1051 1.66669 12.1649 2.10567 12.9463 2.88708C13.7277 3.66848 14.1666 4.72829 14.1666 5.83335Z" stroke="#6E747B" stroke-width="1.5" stroke-linecap="round" stroke-linejoin="round"/>
<path d="M2.84167 18.3333C2.84167 15.1083 6.05001 12.5 10 12.5C10.777 12.4991 11.5506 12.6028 12.3 12.8083" stroke="#6E747B" stroke-width="1.5" stroke-linecap="round" stroke-linejoin="round"/>
<path d="M18.3334 15C18.3345 15.606 18.1672 16.2004 17.85 16.7167C17.6772 17.0136 17.4545 17.2786 17.1917 17.5C16.5901 18.0405 15.8088 18.3376 15 18.3334C14.4255 18.3345 13.8606 18.1861 13.3608 17.9026C12.8611 17.6192 12.4438 17.2104 12.15 16.7167C11.8329 16.2004 11.6655 15.606 11.6667 15C11.6667 14.116 12.0179 13.2681 12.643 12.643C13.2681 12.0179 14.116 11.6667 15 11.6667C15.8841 11.6667 16.7319 12.0179 17.357 12.643C17.9822 13.2681 18.3334 14.116 18.3334 15V15Z" stroke="#6E747B" stroke-width="1.5" stroke-linecap="round" stroke-linejoin="round"/>
<path d="M13.7 15L14.525 15.825L16.3 14.1833" stroke="#6E747B" stroke-width="1.5" stroke-linecap="round" stroke-linejoin="round"/>
</svg>
