<svg width="10" height="10" viewBox="0 0 10 10" fill="none" xmlns="http://www.w3.org/2000/svg">
<path d="M5.75836 1.53332L1.43336 5.85832C1.24937 6.06233 1.12535 6.31324 1.07503 6.58332L0.841698 8.23332C0.812881 8.36189 0.816996 8.49566 0.853664 8.62222C0.890331 8.74878 0.958363 8.86403 1.05145 8.95728C1.14454 9.05053 1.25966 9.11877 1.38616 9.15566C1.51265 9.19255 1.64641 9.19691 1.77503 9.16832L3.42503 8.93499C3.6951 8.88462 3.946 8.76062 4.15003 8.57665L8.47503 4.25165C8.6901 4.09735 8.86531 3.89404 8.98618 3.65855C9.10705 3.42307 9.1701 3.16218 9.1701 2.89749C9.1701 2.63279 9.10705 2.37191 8.98618 2.13642C8.86531 1.90094 8.6901 1.69763 8.47503 1.54332C8.32175 1.32604 8.1187 1.14859 7.88285 1.02578C7.647 0.90298 7.38518 0.838392 7.11928 0.837414C6.85337 0.836435 6.59109 0.899093 6.35434 1.02016C6.11759 1.14122 5.91324 1.31717 5.75836 1.53332V1.53332Z" stroke="#225896" stroke-width="1.5" stroke-linecap="round" stroke-linejoin="round"/>
<path d="M5.14166 2.14996C5.32258 2.79595 5.66679 3.38446 6.14115 3.85881C6.6155 4.33317 7.20401 4.67738 7.85 4.8583" stroke="#225896" stroke-width="1.5" stroke-linecap="round" stroke-linejoin="round"/>
</svg>
