<svg width="20" height="20" viewBox="0 0 20 20" fill="none" xmlns="http://www.w3.org/2000/svg">
<path d="M15 5.96667C14.9475 5.95833 14.8941 5.95833 14.8417 5.96667C14.2776 5.94592 13.7442 5.7046 13.3562 5.29461C12.9682 4.88463 12.7567 4.33874 12.767 3.77437C12.7774 3.21 13.0089 2.67225 13.4117 2.2768C13.8145 1.88135 14.3564 1.65979 14.9208 1.65979C15.4853 1.65979 16.0272 1.88135 16.43 2.2768C16.8328 2.67225 17.0643 3.21 17.0746 3.77437C17.085 4.33874 16.8734 4.88463 16.4855 5.29461C16.0975 5.7046 15.5641 5.94592 15 5.96667V5.96667Z" stroke="#6E747B" stroke-width="1.5" stroke-linecap="round" stroke-linejoin="round"/>
<path d="M14.1416 12.0333C15.2726 12.2422 16.4409 12.0287 17.425 11.4333C17.6898 11.3012 17.9126 11.0979 18.0683 10.8462C18.224 10.5944 18.3065 10.3043 18.3065 10.0083C18.3065 9.71235 18.224 9.42222 18.0683 9.17051C17.9126 8.9188 17.6898 8.71547 17.425 8.58334C16.432 7.98733 15.2547 7.77678 14.1166 7.99167" stroke="#6E747B" stroke-width="1.5" stroke-linecap="round" stroke-linejoin="round"/>
<path d="M4.97502 5.96667C5.02747 5.95833 5.08091 5.95833 5.13336 5.96667C5.69744 5.94592 6.23084 5.7046 6.61883 5.29461C7.00681 4.88463 7.21837 4.33874 7.20799 3.77437C7.19762 3.21 6.96614 2.67225 6.56336 2.2768C6.16057 1.88135 5.61866 1.65979 5.05419 1.65979C4.48973 1.65979 3.94782 1.88135 3.54503 2.2768C3.14224 2.67225 2.91076 3.21 2.90039 3.77437C2.89001 4.33874 3.10157 4.88463 3.48956 5.29461C3.87754 5.7046 4.41094 5.94592 4.97502 5.96667V5.96667Z" stroke="#6E747B" stroke-width="1.5" stroke-linecap="round" stroke-linejoin="round"/>
<path d="M5.83586 12.0333C4.70486 12.2422 3.53656 12.0287 2.55252 11.4333C2.28767 11.3012 2.06488 11.0979 1.90917 10.8462C1.75345 10.5945 1.67096 10.3043 1.67096 10.0083C1.67096 9.71236 1.75345 9.42223 1.90917 9.17052C2.06488 8.91881 2.28767 8.71548 2.55252 8.58334C3.54483 7.98795 4.72114 7.77742 5.85836 7.99168" stroke="#6E747B" stroke-width="1.5" stroke-linecap="round" stroke-linejoin="round"/>
<path d="M10 12.1917C9.94755 12.1834 9.89411 12.1834 9.84166 12.1917C9.27758 12.171 8.74418 11.9296 8.35619 11.5197C7.96821 11.1097 7.75665 10.5638 7.76703 9.9994C7.7774 9.43503 8.00888 8.89729 8.41167 8.50183C8.81445 8.10638 9.35637 7.88483 9.92083 7.88483C10.4853 7.88483 11.0272 8.10638 11.43 8.50183C11.8328 8.89729 12.0643 9.43503 12.0746 9.9994C12.085 10.5638 11.8734 11.1097 11.4855 11.5197C11.0975 11.9296 10.5641 12.171 10 12.1917V12.1917Z" stroke="#6E747B" stroke-width="1.5" stroke-linecap="round" stroke-linejoin="round"/>
<path d="M7.57498 14.8167C7.31013 14.9489 7.08735 15.1522 6.93163 15.4039C6.77591 15.6556 6.69342 15.9457 6.69342 16.2417C6.69342 16.5377 6.77591 16.8278 6.93163 17.0795C7.08735 17.3313 7.31013 17.5346 7.57498 17.6667C8.30815 18.1044 9.14611 18.3355 9.99998 18.3355C10.8539 18.3355 11.6918 18.1044 12.425 17.6667C12.6898 17.5346 12.9126 17.3313 13.0683 17.0795C13.2241 16.8278 13.3065 16.5377 13.3065 16.2417C13.3065 15.9457 13.2241 15.6556 13.0683 15.4039C12.9126 15.1522 12.6898 14.9489 12.425 14.8167C11.6905 14.383 10.853 14.1542 9.99998 14.1542C9.14694 14.1542 8.30952 14.383 7.57498 14.8167V14.8167Z" stroke="#6E747B" stroke-width="1.5" stroke-linecap="round" stroke-linejoin="round"/>
</svg>
