<svg width="20" height="20" viewBox="0 0 20 20" fill="none" xmlns="http://www.w3.org/2000/svg">
<path d="M7.50002 18.3334H12.5C16.6667 18.3334 18.3334 16.6667 18.3334 12.5V7.50002C18.3334 3.33335 16.6667 1.66669 12.5 1.66669H7.50002C3.33335 1.66669 1.66669 3.33335 1.66669 7.50002V12.5C1.66669 16.6667 3.33335 18.3334 7.50002 18.3334Z" stroke="#6E747B" stroke-width="1.5" stroke-linecap="round" stroke-linejoin="round"/>
<path d="M5.92499 12.0333V14.325" stroke="#6E747B" stroke-width="1.5" stroke-linecap="round" stroke-linejoin="round"/>
<path d="M14.5834 9.99998C14.5834 11.2156 14.1005 12.3813 13.2409 13.2409C12.3814 14.1004 11.2156 14.5833 10 14.5833C7.46671 14.5833 5.92504 12.0333 5.92504 12.0333H7.99171M5.41671 9.99998C5.41495 9.39759 5.5323 8.8008 5.76201 8.24393C5.99172 7.68706 6.32926 7.1811 6.75521 6.75515C7.18116 6.3292 7.68712 5.99166 8.24399 5.76195C8.80086 5.53224 9.39765 5.41489 10 5.41665C10.9135 5.43824 11.808 5.68165 12.6065 6.12588C13.4049 6.57012 14.0834 7.20186 14.5834 7.96665M14.5834 7.96665V5.67498M14.5834 7.96665H12.55" stroke="#6E747B" stroke-width="1.5" stroke-linecap="round" stroke-linejoin="round"/>
</svg>
