<svg width="20" height="20" viewBox="0 0 20 20" fill="none" xmlns="http://www.w3.org/2000/svg">
<path d="M17.5 9.58335C17.5 11.1491 17.0357 12.6797 16.1658 13.9816C15.2959 15.2835 14.0595 16.2982 12.6129 16.8974C11.1663 17.4966 9.57456 17.6534 8.03887 17.3479C6.50319 17.0424 5.09257 16.2884 3.98541 15.1813C2.87824 14.0741 2.12425 12.6635 1.81879 11.1278C1.51332 9.59214 1.6701 8.00036 2.26929 6.55378C2.86848 5.10719 3.88318 3.87078 5.18507 3.00089C6.48696 2.13099 8.01757 1.66669 9.58334 1.66669C11.683 1.66669 13.6966 2.50076 15.1813 3.98542C16.6659 5.47009 17.5 7.48372 17.5 9.58335V9.58335Z" stroke="#6E747B" stroke-width="1.5" stroke-linecap="round" stroke-linejoin="round"/>
<path d="M18.3333 18.3334L16.6667 16.6667" stroke="#333333" stroke-width="1.5" stroke-linecap="round" stroke-linejoin="round"/>
</svg>
